<?xml version="1.0" encoding="utf-8"?>
<!-- Generator: Adobe Illustrator 18.1.1, SVG Export Plug-In . SVG Version: 6.00 Build 0)  -->
<svg version="1.1" id="Layer_1" xmlns="http://www.w3.org/2000/svg" xmlns:xlink="http://www.w3.org/1999/xlink" x="0px" y="0px"
	 viewBox="0 0 169.92 169.92" enable-background="new 0 0 169.92 169.92" xml:space="preserve">
<path fill="#007EE5" d="M117.084,73.045l20.376-16.316l-32.176-21.008L84.959,52.684L64.636,35.721L32.46,56.729l20.375,16.316
	L32.46,89.361l21.616,14.112v12.167l30.945,18.558l30.943-18.558v-12.245l21.497-14.035L117.084,73.045z M58.668,73.045
	l26.291-16.234l26.291,16.234L84.959,89.278L58.668,73.045z M114.296,75.078l17.493,14.007l-26.261,17.149L87.801,91.439
	L114.296,75.078z M105.528,39.857l26.261,17.146l-17.493,14.008l-26.495-16.36L105.528,39.857z M64.394,39.857l17.723,14.794
	l-26.495,16.36L38.131,57.003L64.394,39.857z M55.623,75.078l26.495,16.361l-17.723,14.795L38.131,89.085L55.623,75.078z
	 M112.634,113.755L85.02,130.317l-27.615-16.562v-8.107l7.231,4.721l20.323-16.964l20.324,16.964l7.35-4.799V113.755z"/>
</svg>
